<svg xmlns="http://www.w3.org/2000/svg" viewBox="0 0 1221 218.91"><defs><style>.cls-1{fill:#40c9bc;}.cls-2{fill:#0071bc;opacity:0.7;}.cls-3{fill:#f0f;}.cls-3,.cls-4{opacity:0.5;}.cls-4{fill:#583c7c;}</style></defs><g id="Capa_2" data-name="Capa 2"><g id="Capa_2-2" data-name="Capa 2"><path class="cls-1" d="M81.92,131.16C47.06,106.16,19.83,80.23,0,54v164.9H1221V120.39c-205.17,11.4-441.2,17.9-692.39,17.9C372.62,138.29,222.47,135.79,81.92,131.16Z"/><path class="cls-2" d="M1210.5,218.91s-433.34-32.8-821.67-97.42C110.05,75.11,0,25.36,0,25.36V218.91Z"/><path class="cls-3" d="M1220,39.58s-184.66,53.94-395.64,44.7S409.32,33,224.74,10.17C104.66-4.69,0,1.12,0,1.12V218.91H1220Z"/><path class="cls-4" d="M1220,71.72s-179.79,48.88-390.77,39.64S409.32,37,224.74,14.18C104.66-.68,0,1.12,0,1.12V218.91H1220Z"/></g></g></svg>